<svg id="visual" viewBox="0 0 900 600" width="900" height="600" xmlns="http://www.w3.org/2000/svg" xmlns:xlink="http://www.w3.org/1999/xlink" version="1.1"><rect x="0" y="0" width="900" height="600" fill="#000713"></rect><path d="M0 449L129 365L257 362L386 372L514 431L643 412L771 430L900 444L900 601L771 601L643 601L514 601L386 601L257 601L129 601L0 601Z" fill="#f5730a"></path><path d="M0 402L129 422L257 478L386 458L514 451L643 395L771 443L900 442L900 601L771 601L643 601L514 601L386 601L257 601L129 601L0 601Z" fill="#cf6d2a"></path><path d="M0 475L129 444L257 460L386 463L514 511L643 487L771 482L900 488L900 601L771 601L643 601L514 601L386 601L257 601L129 601L0 601Z" fill="#a9663c"></path><path d="M0 488L129 495L257 495L386 538L514 505L643 513L771 535L900 496L900 601L771 601L643 601L514 601L386 601L257 601L129 601L0 601Z" fill="#825e4a"></path><path d="M0 537L129 534L257 530L386 536L514 546L643 553L771 530L900 568L900 601L771 601L643 601L514 601L386 601L257 601L129 601L0 601Z" fill="#565656"></path></svg>